<?xml version="1.0" standalone="no"?>
<!DOCTYPE svg PUBLIC "-//W3C//DTD SVG 20010904//EN"
 "http://www.w3.org/TR/2001/REC-SVG-20010904/DTD/svg10.dtd">
<svg version="1.0" xmlns="http://www.w3.org/2000/svg"
 width="320.000000pt" height="320.000000pt" viewBox="0 0 320.000000 320.000000"
 preserveAspectRatio="xMidYMid meet">
<metadata>
Created by potrace 1.11, written by Peter Selinger 2001-2013
</metadata>
<g transform="translate(0.000000,320.000000) scale(0.100000,-0.100000)"
fill="#000000" stroke="none">
<path d="M1455 2799 c-125 -25 -200 -56 -295 -120 -349 -233 -433 -765 -180
-1134 86 -125 204 -209 370 -266 87 -30 107 -33 235 -35 152 -3 237 10 338 51
161 65 287 179 366 335 20 39 51 123 51 141 0 3 -91 6 -202 6 l-203 1 -35 -49
c-38 -54 -112 -109 -173 -129 -97 -31 -243 -15 -322 37 -75 48 -115 101 -165
218 -19 44 -23 259 -6 316 56 184 190 291 365 292 129 0 228 -48 301 -146 l35
-47 202 0 c112 0 203 4 203 8 0 20 -36 111 -63 162 -95 178 -260 301 -470 350
-86 20 -275 25 -352 9z"/>
<path d="M850 700 l0 -200 750 0 750 0 0 200 0 200 -750 0 -750 0 0 -200z"/>
</g>
</svg>
