<?xml version="1.0" standalone="no"?>
<!DOCTYPE svg PUBLIC "-//W3C//DTD SVG 20010904//EN"
 "http://www.w3.org/TR/2001/REC-SVG-20010904/DTD/svg10.dtd">
<svg version="1.0" xmlns="http://www.w3.org/2000/svg"
 width="718.000000pt" height="718.000000pt" viewBox="0 0 718.000000 718.000000"
 preserveAspectRatio="xMidYMid meet">
<metadata>
Created by potrace 1.11, written by Peter Selinger 2001-2013
</metadata>
<g transform="translate(0.000000,718.000000) scale(0.100000,-0.100000)"
fill="#000000" stroke="none">
<path d="M4639 7051 c-8 -10 -13 -23 -11 -29 2 -7 -1 -12 -6 -12 -12 0 -50
-61 -54 -87 -2 -10 -7 -21 -11 -24 -5 -3 -9 -12 -11 -20 -1 -8 -9 -29 -19 -48
-9 -18 -14 -37 -11 -42 3 -5 0 -9 -7 -9 -7 0 -9 -3 -6 -7 4 -3 2 -12 -4 -20
-6 -7 -8 -13 -4 -13 4 0 2 -6 -4 -14 -6 -8 -11 -18 -10 -22 2 -5 -3 -29 -10
-54 -7 -25 -15 -53 -16 -62 -2 -10 -6 -21 -8 -26 -3 -4 -8 -25 -11 -47 -12
-73 -17 -100 -21 -115 -4 -14 -10 -63 -21 -175 -2 -22 -7 -103 -10 -180 -3
-77 -6 -145 -7 -152 0 -7 -3 -10 -7 -8 -3 2 -27 -16 -53 -40 -26 -23 -47 -41
-47 -39 0 2 -13 -8 -30 -22 -16 -15 -27 -31 -24 -35 3 -5 0 -9 -5 -9 -15 0
-42 -67 -47 -115 -2 -22 -6 -60 -8 -85 -8 -78 -17 -164 -21 -200 -13 -109 -15
-190 -5 -190 17 0 97 57 113 80 8 11 16 18 18 15 3 -2 24 13 47 34 23 21 42
36 42 33 0 -3 9 4 20 16 12 12 25 22 31 22 6 0 8 4 5 8 -2 4 4 9 15 9 10 1 20
-4 20 -10 3 -20 6 -60 8 -84 1 -21 6 -23 59 -23 59 0 59 0 76 38 13 29 23 38
39 37 46 -3 68 -17 74 -46 6 -30 6 -30 66 -27 44 2 61 7 63 18 1 8 5 33 9 55
4 22 8 41 9 43 2 1 14 -7 28 -18 14 -10 29 -16 33 -12 5 4 5 2 2 -4 -4 -7 1
-18 10 -25 14 -12 16 -12 8 1 -5 8 13 -7 40 -33 27 -26 55 -47 62 -47 6 0 15
-5 19 -12 5 -7 2 -9 -7 -4 -8 4 -5 0 6 -8 11 -9 33 -26 49 -38 16 -13 37 -24
47 -24 16 -1 18 5 13 55 -2 31 -7 81 -9 111 -3 30 -7 87 -11 125 -3 39 -7 95
-9 125 -2 30 -6 71 -10 90 -6 36 -50 120 -63 120 -4 1 -37 29 -74 63 l-67 62
-5 185 c-3 102 -8 203 -11 225 -3 22 -8 56 -10 75 -2 19 -6 46 -9 60 -3 14 -8
41 -11 60 -8 57 -11 69 -17 76 -4 3 -4 12 -2 19 3 7 0 16 -5 20 -6 3 -9 10 -6
15 3 5 -3 34 -14 64 -11 31 -17 56 -14 56 3 0 0 7 -7 15 -7 8 -9 15 -6 15 4 0
1 10 -6 23 -6 12 -13 31 -15 42 -2 11 -8 24 -13 29 -6 6 -10 16 -10 23 0 6
-13 34 -29 62 -16 27 -28 51 -26 53 2 2 -6 15 -18 30 -21 24 -23 25 -38 9z
m66 -636 c55 -54 8 -142 -68 -128 -33 6 -57 39 -60 80 -2 21 4 34 27 51 39 29
71 28 101 -3z m-22 -197 c42 -22 46 -35 35 -115 -1 -7 -4 -11 -6 -8 -3 3 -11
0 -18 -5 -19 -17 -53 -20 -78 -8 -51 23 -58 87 -14 128 25 23 49 25 81 8z m-3
-219 c69 -27 43 -147 -30 -143 -36 2 -71 15 -65 24 3 5 1 11 -5 15 -17 11 -11
68 10 90 22 24 54 29 90 14z"/>
<path d="M4459 4948 c-1 -2 -3 -25 -4 -53 -12 -227 -30 -460 -36 -460 0 0 -2
-13 -4 -30 -2 -28 -10 -86 -20 -145 -3 -14 -7 -41 -9 -60 -3 -19 -8 -45 -11
-57 -11 -50 -15 -69 -20 -98 -2 -16 -18 -84 -35 -150 -17 -66 -32 -128 -34
-137 -9 -36 -78 -252 -88 -277 -6 -14 -12 -33 -13 -41 0 -8 -9 -30 -18 -48
-10 -18 -15 -37 -12 -42 3 -6 1 -10 -4 -10 -6 0 -10 -3 -9 -7 1 -5 -4 -19 -12
-33 -7 -14 -12 -25 -11 -25 2 0 -9 -26 -23 -59 -14 -32 -26 -63 -26 -68 0 -5
-7 -20 -16 -33 -9 -14 -12 -25 -8 -25 5 0 4 -4 -1 -8 -9 -6 -36 -56 -40 -72 0
-3 -6 -15 -13 -26 -6 -12 -8 -24 -5 -28 3 -3 1 -6 -5 -6 -10 0 -28 -40 -23
-49 2 -2 -1 -7 -6 -10 -4 -3 -15 -15 -23 -25 -13 -18 -13 -19 0 -11 8 4 4 -4
-9 -18 -14 -15 -21 -27 -17 -27 4 0 -2 -13 -13 -29 -12 -16 -21 -34 -21 -40 0
-6 -4 -11 -9 -11 -5 0 -11 -10 -15 -22 -8 -33 -7 -32 -25 -45 -9 -7 -11 -13
-6 -13 6 0 5 -4 -2 -8 -6 -4 -13 -13 -15 -21 -2 -8 -13 -25 -25 -39 -13 -13
-20 -28 -18 -32 3 -5 2 -10 -2 -12 -11 -4 -73 -97 -73 -108 0 -6 -5 -10 -12
-10 -6 0 -9 -3 -6 -6 4 -3 -1 -14 -10 -24 -21 -23 -52 -67 -54 -77 -1 -5 -11
-16 -22 -26 -12 -10 -14 -16 -6 -12 10 4 9 2 -2 -8 -10 -8 -15 -17 -11 -20 3
-4 -1 -7 -10 -7 -9 0 -17 -7 -17 -15 0 -8 -4 -15 -10 -15 -5 0 -10 -7 -10 -15
0 -8 -4 -15 -9 -15 -4 0 -20 -17 -34 -37 -14 -21 -41 -56 -60 -78 -20 -22 -33
-44 -30 -49 3 -5 1 -6 -6 -2 -6 4 -14 0 -18 -10 -3 -9 -22 -33 -42 -52 -20
-19 -29 -31 -21 -27 8 4 0 -5 -17 -22 -18 -16 -33 -35 -33 -41 0 -7 -3 -11 -7
-10 -8 3 -53 -38 -49 -44 1 -1 -9 -14 -23 -28 -13 -14 -20 -18 -16 -10 5 8 6
13 3 10 -2 -3 -32 -35 -66 -72 -33 -36 -63 -64 -65 -61 -3 2 -8 -5 -12 -16 -3
-12 -9 -20 -13 -18 -4 2 -20 -10 -37 -26 -16 -16 -23 -26 -15 -22 9 5 12 4 7
-1 -5 -5 -12 -9 -17 -9 -9 0 -111 -88 -169 -145 -19 -19 -31 -28 -27 -20 4 8
-4 2 -18 -13 -14 -15 -26 -24 -26 -20 -1 4 -10 -3 -21 -17 -12 -14 -24 -25
-28 -25 -3 0 -5 -4 -3 -8 1 -5 -1 -6 -6 -3 -5 3 -18 -2 -28 -12 -10 -9 -38
-30 -61 -46 -24 -16 -43 -33 -43 -38 0 -5 -4 -7 -9 -4 -4 3 -18 -6 -31 -19
-13 -13 -26 -22 -31 -19 -4 2 -11 -2 -16 -9 -4 -8 -23 -22 -40 -31 -18 -9 -33
-22 -33 -28 0 -6 -3 -8 -6 -5 -4 4 -21 -4 -38 -16 -39 -28 -64 -43 -101 -61
-16 -8 -41 -23 -55 -33 -14 -11 -51 -32 -82 -48 -32 -15 -58 -32 -58 -37 0 -4
-3 -7 -7 -6 -10 3 -166 -74 -174 -85 -3 -5 -9 -8 -13 -8 -7 1 -110 -44 -147
-64 -14 -8 -29 -12 -33 -8 -3 3 -6 1 -6 -5 0 -7 -3 -11 -7 -10 -5 1 -21 -4
-38 -11 -16 -6 -36 -14 -43 -16 -10 -4 -10 -9 0 -27 7 -13 13 -25 13 -28 0 -3
6 -19 14 -37 13 -31 14 -32 37 -16 13 8 24 12 24 7 0 -4 5 -3 12 4 7 7 20 12
30 12 10 0 18 5 18 11 0 5 5 7 10 4 6 -3 10 -1 10 5 0 6 4 9 8 6 10 -6 114 42
124 58 4 6 8 7 8 2 0 -5 10 -1 22 10 12 10 18 14 15 8 -8 -13 125 55 134 69 3
5 9 8 13 7 12 -3 66 25 66 33 0 5 4 6 8 3 5 -3 19 4 30 15 12 11 22 17 22 14
0 -3 10 0 21 7 12 7 38 23 58 35 20 12 53 31 73 43 21 11 38 25 38 31 0 6 4 8
9 4 6 -3 14 3 20 12 6 10 11 15 11 10 0 -11 80 44 80 55 0 5 4 7 9 4 5 -3 14
1 21 9 7 8 17 15 22 15 5 0 15 6 22 12 8 7 24 20 36 28 13 8 32 23 42 33 10 9
18 14 18 11 0 -5 40 25 93 71 9 8 19 15 22 15 3 0 21 15 40 34 18 19 35 32 38
30 2 -2 26 16 53 41 27 25 52 45 57 45 4 0 5 5 2 10 -3 6 1 10 9 10 9 0 16 3
16 8 0 4 13 16 29 27 16 10 28 22 27 25 -2 3 5 13 16 22 10 10 18 15 18 12 0
-3 48 42 108 101 59 59 106 113 104 119 -2 6 -1 8 3 4 8 -8 35 16 35 31 0 5 5
13 12 17 7 5 9 2 4 -7 -4 -8 -1 -6 7 4 18 21 99 115 140 161 15 17 30 39 33
48 3 10 10 16 15 13 5 -4 9 -2 9 4 0 5 6 16 13 23 6 7 25 31 41 53 16 22 38
48 48 58 10 10 16 22 13 28 -4 5 -2 9 3 9 9 0 73 82 76 96 0 5 13 22 29 38 15
17 27 34 27 39 0 5 7 15 15 24 8 8 13 19 10 24 -4 5 -2 9 3 9 4 0 19 14 31 31
13 18 17 29 10 25 -9 -5 -8 -3 1 6 20 17 66 91 62 101 -1 4 2 7 8 7 5 0 17 17
26 38 10 20 26 50 37 65 10 15 20 34 21 42 1 8 10 22 19 33 9 10 14 22 10 25
-3 4 -2 7 4 7 9 0 21 27 21 47 0 3 4 9 9 12 11 7 77 141 78 156 0 6 2 12 6 15
8 8 39 77 39 89 0 6 5 11 10 11 6 0 10 6 8 13 -1 6 5 26 14 42 9 17 18 39 20
50 1 11 6 22 9 25 9 7 51 122 52 143 1 9 4 17 8 17 4 0 24 51 34 90 1 3 6 21
12 40 42 132 64 209 69 234 2 16 8 36 13 45 4 9 7 23 6 31 -1 8 3 24 8 35 6
11 12 29 13 40 2 11 6 31 9 45 4 14 8 36 10 50 5 31 13 65 15 65 1 0 3 11 5
25 1 14 6 39 9 55 4 17 9 44 11 60 3 17 7 41 10 55 3 14 8 48 11 75 3 28 8 64
10 80 2 17 6 53 9 80 2 28 7 73 10 100 2 28 7 116 11 198 l6 147 -61 0 c-34 0
-62 -1 -62 -2z"/>
<path d="M4702 4933 c1 -24 -13 -299 -17 -343 -2 -19 -6 -66 -10 -103 -3 -37
-8 -76 -10 -86 -2 -10 -6 -42 -10 -71 -4 -29 -9 -62 -11 -74 -2 -11 -6 -38 -9
-61 -8 -54 -14 -85 -21 -115 -3 -14 -7 -35 -9 -47 -2 -11 -6 -31 -10 -43 -4
-12 -8 -32 -9 -43 -2 -12 -6 -31 -9 -42 -3 -11 -8 -31 -11 -45 -3 -14 -8 -36
-11 -50 -4 -14 -8 -34 -10 -45 -2 -11 -10 -39 -19 -62 -8 -24 -13 -43 -10 -43
2 0 -2 -13 -11 -30 -8 -16 -14 -33 -13 -37 2 -13 -14 -67 -24 -80 -5 -7 -7
-17 -3 -23 3 -5 1 -10 -6 -10 -7 0 -10 -3 -6 -6 3 -3 -6 -36 -20 -72 -14 -37
-26 -71 -28 -77 -1 -5 -7 -23 -14 -40 -41 -99 -63 -158 -65 -168 -1 -7 -14
-35 -28 -64 -15 -28 -24 -54 -21 -57 4 -3 2 -6 -4 -6 -9 0 -25 -38 -23 -55 0
-3 -6 -13 -15 -21 -8 -9 -13 -20 -10 -25 4 -5 2 -9 -3 -9 -8 0 -31 -48 -31
-66 0 -2 -7 -12 -16 -20 -8 -9 -13 -19 -10 -24 3 -4 -2 -13 -11 -21 -15 -12
-52 -86 -52 -103 0 -5 -5 -12 -10 -15 -10 -6 -46 -71 -47 -84 0 -4 -5 -11 -10
-15 -6 -4 -16 -18 -23 -32 -17 -36 -35 -64 -47 -72 -6 -4 -6 -8 -1 -8 6 0 -2
-12 -16 -27 -23 -26 -52 -70 -53 -83 0 -3 -10 -16 -22 -29 -12 -13 -20 -28
-17 -33 3 -4 2 -8 -3 -8 -11 0 -59 -72 -55 -83 1 -5 -1 -6 -6 -3 -4 2 -19 -12
-32 -32 -14 -20 -29 -40 -35 -44 -7 -5 -7 -8 0 -8 6 0 5 -4 -2 -8 -19 -12
-123 -146 -123 -159 0 -6 -5 -15 -12 -19 -7 -5 -9 -2 -4 7 4 8 1 5 -8 -6 -8
-11 -20 -25 -26 -32 -5 -7 -10 -18 -10 -24 0 -7 -3 -9 -6 -6 -7 7 -50 -44 -47
-55 2 -4 -6 -10 -17 -13 -11 -4 -20 -10 -20 -14 0 -5 -16 -23 -35 -42 -19 -19
-35 -40 -35 -48 0 -8 -3 -11 -6 -8 -7 7 -54 -42 -54 -56 0 -5 -4 -5 -10 -2 -5
3 -10 -1 -10 -10 0 -9 -4 -13 -10 -10 -5 3 -10 2 -10 -2 0 -5 -7 -18 -16 -29
-8 -10 -12 -13 -8 -5 5 9 3 12 -4 7 -7 -4 -12 -14 -12 -23 0 -9 -3 -13 -6 -10
-4 4 -19 -9 -34 -28 -15 -19 -30 -32 -33 -28 -4 3 -11 -6 -16 -21 -6 -14 -13
-26 -16 -26 -4 0 -3 6 1 13 4 6 -15 -9 -42 -35 -97 -93 -104 -99 -104 -93 0 3
-8 -3 -18 -12 -11 -10 -17 -22 -14 -27 3 -5 0 -6 -5 -3 -6 4 -27 -9 -47 -29
-20 -19 -36 -32 -36 -29 0 3 -6 0 -14 -7 -8 -7 -11 -17 -8 -22 3 -5 0 -6 -5
-3 -6 4 -28 -10 -49 -31 -21 -20 -35 -30 -30 -22 7 13 6 13 -6 0 -7 -8 -32
-28 -55 -44 -24 -16 -55 -40 -70 -55 -14 -14 -23 -19 -18 -11 5 8 -2 6 -16 -6
-13 -11 -54 -41 -91 -65 -38 -24 -68 -47 -68 -52 0 -4 -4 -6 -8 -3 -5 3 -18
-3 -29 -14 -12 -10 -23 -16 -27 -13 -3 3 -8 -2 -12 -11 -3 -9 -10 -13 -15 -10
-5 3 -9 0 -9 -6 0 -6 -4 -9 -9 -6 -5 3 -14 -1 -21 -9 -7 -8 -19 -15 -26 -15
-8 0 -14 -4 -14 -10 0 -5 -6 -10 -14 -10 -8 0 -22 -7 -30 -16 -9 -8 -16 -12
-16 -7 0 4 -7 -1 -16 -12 -8 -11 -16 -18 -17 -16 -3 6 -81 -31 -89 -43 -3 -5
-17 -11 -29 -13 -12 -2 -38 -15 -58 -30 -19 -15 -31 -21 -27 -14 6 10 3 9 -13
-1 -12 -7 -21 -15 -21 -19 0 -3 -6 -6 -12 -6 -7 0 -53 -20 -103 -43 -94 -46
-96 -47 -119 -49 -8 0 -21 -8 -30 -16 -8 -9 -18 -16 -21 -15 -5 0 -8 -1 -22
-5 -52 -14 -63 -19 -63 -27 0 -5 -4 -7 -8 -4 -4 2 -38 -8 -75 -24 -37 -15 -67
-25 -67 -22 0 3 -5 1 -11 -5 -6 -6 -18 -9 -25 -6 -15 5 -20 -27 -7 -41 4 -3 8
-16 10 -27 8 -55 22 -62 78 -39 25 10 49 18 55 17 3 0 16 6 30 13 14 8 34 14
44 15 11 1 22 7 24 14 2 6 7 9 12 6 4 -3 21 2 36 10 16 8 35 15 42 15 6 0 12
5 12 12 0 6 3 8 6 5 4 -3 16 -1 28 5 11 7 28 13 36 14 8 2 16 8 18 14 2 5 8 7
13 4 6 -3 17 0 25 7 9 7 22 14 29 15 22 3 169 77 177 88 4 6 8 8 8 3 0 -9 113
53 118 65 2 5 7 6 12 3 5 -3 16 2 24 11 9 8 16 13 16 9 0 -3 12 2 26 12 44 29
88 53 107 59 9 4 17 10 17 15 0 5 7 9 15 9 7 0 18 8 24 18 5 9 11 16 13 14 7
-7 44 12 61 32 10 12 16 15 12 8 -6 -11 -3 -11 14 0 12 7 21 16 21 20 0 5 7 8
15 8 9 0 18 7 21 15 4 8 10 12 15 9 5 -3 9 0 9 5 0 6 6 10 13 8 6 -1 11 4 9
11 -1 8 1 11 6 8 5 -3 25 9 45 25 20 17 37 28 37 25 0 -6 28 15 55 41 8 7 18
13 24 13 5 0 16 9 24 20 8 11 17 17 20 14 4 -4 9 1 13 10 3 9 11 16 18 16 15
1 66 46 66 60 0 6 3 9 8 6 4 -2 25 11 47 30 22 19 45 37 50 42 48 36 172 151
168 156 -4 3 -1 6 5 6 17 0 222 202 216 212 -3 5 0 7 8 6 7 -2 12 3 11 9 -2 7
3 12 10 10 6 -1 11 4 10 11 -2 6 2 12 8 12 6 0 17 7 25 15 9 8 13 15 10 15 -3
0 19 25 49 57 30 31 55 62 55 69 0 7 5 16 12 20 7 5 9 2 4 -7 -5 -8 4 0 18 18
15 18 28 36 28 40 1 4 12 16 25 26 13 10 23 25 23 33 0 8 3 13 8 11 4 -2 18
10 32 27 13 17 18 27 9 21 -8 -5 -5 -1 6 10 36 34 75 91 67 99 -4 4 -2 6 3 4
6 -2 11 1 12 5 1 5 10 15 20 24 11 8 12 12 3 8 -8 -4 -5 2 7 12 12 10 47 56
77 103 30 47 60 90 65 97 6 7 11 15 11 18 0 3 15 27 34 54 19 27 32 52 29 55
-4 3 -1 6 6 6 7 0 9 5 6 10 -3 6 -2 10 3 10 8 0 30 38 29 50 -1 3 7 14 16 25
9 11 17 24 16 29 0 5 4 12 9 15 14 9 94 161 84 161 -4 0 -2 4 5 8 6 4 13 14
15 22 2 8 9 21 16 28 7 8 10 18 7 23 -4 5 -1 9 5 9 6 0 8 5 5 10 -3 6 -2 10 4
10 5 0 17 21 27 48 10 26 22 50 27 53 5 4 7 11 3 17 -3 6 -3 12 2 14 7 3 75
151 78 171 1 4 3 9 4 12 1 3 3 8 5 13 1 4 8 21 15 37 7 17 14 32 14 35 1 3 5
11 9 18 5 6 6 16 3 21 -4 5 -2 11 4 13 5 1 11 12 13 23 2 11 9 32 14 46 6 14
17 45 24 70 7 24 16 49 20 54 4 6 10 22 13 35 11 56 15 68 30 103 8 21 11 35
5 31 -6 -3 -5 4 2 17 7 13 14 26 14 29 1 3 5 21 10 40 4 19 9 42 10 50 1 8 6
23 10 32 4 10 8 29 9 43 0 14 4 25 7 25 3 0 6 6 6 13 1 21 19 119 23 125 2 1
3 10 5 20 1 9 5 35 10 57 5 22 9 51 11 65 1 14 3 25 4 25 1 0 4 14 5 30 2 17
6 41 9 55 3 14 8 48 11 75 4 28 8 61 10 75 13 101 22 226 29 403 l5 127 -64 0
c-54 0 -64 -3 -63 -17z"/>
<path d="M3497 4854 c-1 -2 -41 -5 -87 -8 -47 -3 -87 -6 -90 -7 -3 -1 -9 -1
-14 0 -5 1 -34 -4 -65 -10 -31 -7 -67 -13 -81 -15 -31 -3 -78 -13 -105 -21
-11 -4 -24 -7 -30 -8 -23 -3 -157 -41 -190 -55 -11 -4 -42 -16 -70 -25 -110
-39 -345 -153 -345 -167 0 -5 -5 -6 -10 -3 -6 3 -13 -1 -16 -9 -3 -9 -9 -14
-14 -11 -4 2 -25 -9 -46 -25 -21 -16 -43 -30 -47 -30 -4 0 -13 -5 -20 -10 -7
-6 -46 -35 -87 -66 -41 -30 -87 -69 -102 -85 -16 -17 -28 -27 -28 -23 0 5 -20
-12 -44 -37 -23 -24 -54 -53 -67 -62 -13 -10 -17 -15 -9 -10 8 4 -13 -20 -47
-54 -34 -33 -59 -64 -56 -67 4 -3 2 -6 -4 -6 -15 0 -113 -122 -107 -132 3 -4
1 -8 -4 -8 -5 0 -23 -20 -41 -45 -18 -25 -30 -45 -27 -45 3 0 -6 -12 -19 -26
-14 -15 -22 -30 -19 -35 3 -5 -1 -12 -9 -15 -13 -5 -18 -13 -26 -49 -1 -5 -9
-14 -17 -18 -8 -5 -12 -12 -9 -18 4 -5 1 -9 -4 -9 -6 0 -11 -7 -11 -15 0 -8
-5 -15 -10 -15 -6 0 -9 -3 -8 -7 1 -5 -3 -18 -10 -29 -6 -12 -8 -24 -5 -28 3
-3 2 -6 -4 -6 -8 0 -39 -59 -48 -90 -1 -3 -9 -23 -19 -45 -10 -22 -19 -44 -20
-50 -2 -5 -6 -17 -9 -25 -36 -93 -85 -263 -92 -320 -2 -14 -4 -25 -5 -25 -1 0
-3 -11 -6 -25 -2 -14 -7 -38 -10 -55 -34 -187 -38 -544 -7 -710 3 -16 7 -41 8
-55 2 -14 4 -27 5 -30 1 -3 2 -9 1 -14 -1 -5 1 -16 5 -25 7 -17 14 -47 15 -71
0 -8 3 -22 6 -30 3 -8 7 -20 8 -26 2 -6 11 -38 21 -70 10 -33 18 -62 20 -66 1
-5 2 -9 4 -10 1 -2 3 -10 5 -18 4 -18 40 -113 60 -157 8 -17 15 -36 15 -42 0
-6 5 -11 11 -11 5 0 8 -3 6 -7 -3 -5 8 -33 24 -63 16 -30 32 -63 35 -72 4 -10
11 -18 16 -18 5 0 7 -4 3 -9 -3 -5 2 -17 11 -25 8 -9 13 -16 9 -16 -4 0 1 -7
9 -16 9 -8 16 -22 16 -30 0 -8 3 -14 8 -14 4 0 13 -13 20 -29 7 -16 24 -41 37
-55 13 -14 22 -26 19 -26 -3 0 0 -6 6 -12 5 -7 29 -38 52 -68 24 -30 48 -61
55 -68 7 -7 16 -20 21 -28 8 -14 12 -14 45 0 21 8 37 20 37 25 0 6 3 10 8 9
12 -2 46 15 60 31 8 9 11 10 7 3 -7 -14 106 55 116 70 3 6 8 9 10 8 8 -4 59
24 59 32 0 4 6 8 13 8 6 1 22 9 35 20 28 23 25 29 -39 97 -25 26 -48 56 -52
66 -4 11 -12 15 -18 11 -7 -4 -9 -3 -6 3 4 5 -3 19 -13 31 -11 12 -20 26 -20
32 0 5 -4 10 -8 10 -5 0 -14 10 -21 23 -6 12 -22 40 -36 62 -13 22 -27 48 -31
58 -3 9 -10 17 -15 17 -5 0 -8 3 -7 8 2 9 -44 105 -55 113 -4 3 -9 16 -10 27
-1 12 -6 22 -11 22 -5 0 -6 3 -3 6 3 4 1 16 -5 28 -7 11 -11 24 -10 29 1 4 -3
7 -8 7 -6 0 -10 6 -9 12 1 7 -1 21 -4 31 -17 43 -20 53 -22 62 -2 6 -11 39
-20 75 -10 36 -18 73 -17 83 0 9 -2 17 -6 17 -4 0 -8 10 -8 23 -1 12 -4 42 -8
67 -16 115 -19 164 -19 285 0 72 3 155 6 185 12 107 18 145 27 179 5 19 7 38
4 42 -2 4 0 10 6 14 6 4 8 10 5 15 -3 5 -1 11 4 15 5 3 8 14 6 25 -2 11 0 20
5 20 5 0 7 9 5 20 -2 11 0 20 6 20 5 0 8 3 7 8 0 4 1 14 4 22 3 8 13 38 23 65
19 58 32 90 51 126 7 14 11 29 7 33 -3 3 -2 6 4 6 11 0 37 57 34 73 0 4 3 7 9
7 5 0 10 7 10 15 0 8 5 15 11 15 6 0 8 7 5 15 -3 9 1 18 8 21 8 3 20 19 26 35
7 16 17 29 23 29 6 0 8 3 4 6 -3 3 2 14 11 25 9 11 17 23 16 27 0 4 9 15 20
24 12 10 18 17 14 18 -4 0 3 11 15 24 39 42 92 108 104 130 7 11 12 17 13 13
0 -11 50 40 50 52 0 5 5 13 12 17 7 5 8 3 3 -6 -5 -9 -4 -11 3 -6 7 4 12 14
12 23 0 9 3 14 6 11 3 -4 21 9 40 27 18 18 61 53 93 78 33 25 57 48 53 52 -4
5 -2 5 4 2 6 -3 21 3 32 14 12 11 22 17 22 13 0 -4 8 2 18 12 9 10 24 20 32
22 8 2 20 10 26 17 6 8 14 12 17 8 4 -3 7 0 7 7 0 7 3 11 6 7 3 -3 28 8 55 24
28 16 54 29 58 29 5 0 14 7 21 15 7 9 15 13 18 11 2 -3 14 0 26 6 11 7 26 13
31 14 25 6 81 30 86 37 3 5 8 8 10 6 2 -1 15 1 29 5 14 5 36 10 50 13 13 2 27
7 30 11 3 4 14 8 25 9 22 3 57 10 65 14 3 1 10 3 15 4 6 2 12 4 15 5 3 1 14 3
25 5 11 1 36 6 55 10 117 23 354 33 480 20 130 -13 140 -15 235 -36 28 -6 60
-11 73 -12 12 -1 22 -5 22 -10 0 -4 3 -6 8 -5 4 1 27 -5 52 -12 25 -8 47 -14
50 -14 3 -1 11 -5 18 -10 25 -15 34 5 48 99 20 136 27 194 38 308 6 59 3 62
-40 56 -4 0 -10 4 -13 9 -3 6 -19 13 -36 16 -16 3 -48 10 -70 16 -22 6 -53 13
-70 15 -16 2 -41 7 -55 10 -51 12 -73 16 -118 20 -26 2 -74 7 -107 10 -67 6
-274 13 -278 9z m-1306 -3581 c13 -16 12 -17 -3 -4 -17 13 -22 21 -14 21 2 0
10 -8 17 -17z"/>
<path d="M4999 4369 c0 -2 -3 -20 -6 -39 -2 -19 -11 -71 -18 -114 -8 -44 -12
-83 -9 -88 3 -4 1 -8 -3 -8 -5 0 -9 -10 -11 -22 -1 -13 -13 -74 -27 -137 l-25
-115 22 -25 c13 -14 28 -30 34 -36 10 -9 112 -132 137 -165 28 -37 90 -135 86
-136 -2 -1 3 -10 12 -20 23 -26 122 -235 149 -312 31 -90 60 -191 66 -232 3
-19 7 -42 10 -50 3 -8 8 -33 10 -55 3 -22 7 -56 11 -75 8 -43 12 -401 4 -415
-2 -5 -6 -23 -8 -40 -3 -27 -15 -98 -28 -164 -12 -63 -84 -291 -95 -301 -3 -3
-6 -12 -8 -20 -5 -21 -87 -183 -117 -230 -14 -22 -25 -42 -25 -45 0 -2 -6 -13
-14 -22 -8 -10 -43 -56 -77 -102 -64 -88 -228 -258 -314 -328 -82 -66 -223
-158 -327 -212 -54 -28 -98 -49 -98 -46 0 3 -10 -1 -22 -9 -26 -17 -221 -83
-269 -91 -18 -3 -36 -8 -39 -10 -4 -3 -25 -8 -46 -11 -47 -7 -69 -12 -69 -14
0 -1 -27 -3 -60 -6 -33 -2 -71 -7 -85 -9 -35 -7 -275 -7 -330 0 -174 22 -320
53 -404 84 l-28 11 93 71 c51 39 98 76 104 82 7 7 34 30 60 52 104 86 146 125
297 274 87 85 154 159 151 164 -3 6 -1 7 5 3 6 -3 14 0 19 8 4 8 26 34 48 58
34 35 117 135 213 253 71 88 272 379 272 394 0 5 4 11 8 13 8 3 99 150 132
213 9 17 42 77 73 135 31 58 63 122 71 142 l15 36 -55 26 c-53 25 -57 26 -70
9 -7 -10 -12 -23 -9 -30 2 -6 0 -13 -4 -15 -5 -2 -30 -43 -56 -93 -97 -183
-248 -432 -339 -560 -66 -91 -172 -232 -181 -240 -30 -27 -83 -103 -77 -110 4
-5 2 -5 -5 -1 -6 3 -15 0 -20 -7 -17 -30 -134 -157 -264 -286 -157 -158 -205
-202 -314 -291 -44 -36 -90 -75 -103 -87 -12 -13 -26 -23 -30 -23 -4 0 -18
-10 -32 -22 -40 -37 -106 -85 -220 -162 -25 -16 -47 -32 -50 -35 -3 -4 -14
-11 -25 -18 -11 -6 -54 -33 -95 -59 -41 -26 -118 -71 -170 -101 -52 -29 -102
-58 -110 -63 -8 -5 -61 -31 -117 -59 l-103 -51 13 -27 c6 -16 19 -43 27 -61
l16 -33 139 72 c76 39 156 82 177 95 21 13 42 24 48 24 6 0 37 -13 70 -30 84
-42 280 -119 320 -125 8 -1 22 -5 30 -8 23 -9 103 -29 127 -32 12 -2 26 -5 30
-8 10 -6 162 -33 243 -42 127 -16 385 -12 530 6 174 22 176 22 316 59 140 36
279 87 421 156 100 48 209 109 223 124 3 3 16 11 30 18 29 15 193 137 249 185
20 17 86 82 147 143 346 348 574 806 644 1294 18 130 22 183 22 318 0 210 -13
337 -57 533 -26 116 -82 298 -96 314 -5 5 -9 15 -9 23 0 37 -216 445 -250 472
-3 3 -17 21 -30 40 -46 67 -154 193 -234 274 -92 93 -234 215 -237 205z"/>
</g>
</svg>
